<?xml version="1.0" ?><!DOCTYPE svg  PUBLIC '-//W3C//DTD SVG 1.1//EN'  'http://www.w3.org/Graphics/SVG/1.1/DTD/svg11.dtd'><svg enable-background="new 0 0 32 32" height="32px" version="1.1" viewBox="0 0 32 32" width="32px" xml:space="preserve" xmlns="http://www.w3.org/2000/svg" xmlns:xlink="http://www.w3.org/1999/xlink"><g id="play"/><g id="stop"/><g id="pause"/><g id="replay"/><g id="next"/><g id="Layer_8"/><g id="search"><g><g><circle cx="14.5" cy="14.5" r="11.5"/><path d="M14.5,27C7.607,27,2,21.393,2,14.5S7.607,2,14.5,2S27,7.607,27,14.5S21.393,27,14.5,27z M14.5,4C8.71,4,4,8.71,4,14.5     S8.71,25,14.5,25S25,20.29,25,14.5S20.29,4,14.5,4z"/></g><g><line x1="29" x2="23" y1="29" y2="23"/><path d="M29,30c-0.256,0-0.512-0.098-0.707-0.293l-6-6c-0.391-0.391-0.391-1.023,0-1.414s1.023-0.391,1.414,0l6,6     c0.391,0.391,0.391,1.023,0,1.414C29.512,29.902,29.256,30,29,30z"/></g></g></g><g id="list"/><g id="love"/><g id="menu"/><g id="add"/><g id="headset"/><g id="random"/><g id="music"/><g id="setting"/><g id="Layer_17"/><g id="Layer_18"/><g id="Layer_19"/><g id="Layer_20"/><g id="Layer_21"/><g id="Layer_22"/><g id="Layer_23"/><g id="Layer_24"/><g id="Layer_25"/><g id="Layer_26"/></svg>